<mxfile host="app.diagrams.net" modified="2024-07-05T02:39:06.017Z" agent="Mozilla/5.0 (Windows NT 10.0; Win64; x64) AppleWebKit/537.36 (KHTML, like Gecko) Chrome/126.0.0.0 Safari/537.36 Edg/126.0.0.0" etag="b-C7csooEXle82Wb_wxg" version="24.6.4" type="github">
  <diagram id="C5RBs43oDa-KdzZeNtuy" name="Page-1">
    <mxGraphModel dx="1050" dy="619" grid="1" gridSize="10" guides="1" tooltips="1" connect="1" arrows="1" fold="1" page="1" pageScale="1" pageWidth="827" pageHeight="1169" math="0" shadow="0">
      <root>
        <mxCell id="WIyWlLk6GJQsqaUBKTNV-0" />
        <mxCell id="WIyWlLk6GJQsqaUBKTNV-1" parent="WIyWlLk6GJQsqaUBKTNV-0" />
        <mxCell id="mDSZp5O0hA007oUGLqsv-19" value="" style="group;movable=0;resizable=0;rotatable=0;deletable=0;editable=0;locked=1;connectable=0;" vertex="1" connectable="0" parent="WIyWlLk6GJQsqaUBKTNV-1">
          <mxGeometry x="130" y="80" width="610" height="320" as="geometry" />
        </mxCell>
        <mxCell id="mDSZp5O0hA007oUGLqsv-4" style="edgeStyle=orthogonalEdgeStyle;rounded=0;orthogonalLoop=1;jettySize=auto;html=1;exitX=0.5;exitY=0;exitDx=0;exitDy=0;entryX=0.5;entryY=0;entryDx=0;entryDy=0;" edge="1" parent="mDSZp5O0hA007oUGLqsv-19" source="mDSZp5O0hA007oUGLqsv-1" target="mDSZp5O0hA007oUGLqsv-2">
          <mxGeometry relative="1" as="geometry">
            <Array as="points">
              <mxPoint x="60" />
              <mxPoint x="550" />
            </Array>
          </mxGeometry>
        </mxCell>
        <mxCell id="mDSZp5O0hA007oUGLqsv-1" value="装车区" style="shape=hexagon;perimeter=hexagonPerimeter2;whiteSpace=wrap;html=1;fixedSize=1;" vertex="1" parent="mDSZp5O0hA007oUGLqsv-19">
          <mxGeometry y="110" width="120" height="100" as="geometry" />
        </mxCell>
        <mxCell id="mDSZp5O0hA007oUGLqsv-6" style="edgeStyle=orthogonalEdgeStyle;rounded=0;orthogonalLoop=1;jettySize=auto;html=1;exitX=0.5;exitY=1;exitDx=0;exitDy=0;entryX=0.5;entryY=1;entryDx=0;entryDy=0;" edge="1" parent="mDSZp5O0hA007oUGLqsv-19" source="mDSZp5O0hA007oUGLqsv-2" target="mDSZp5O0hA007oUGLqsv-1">
          <mxGeometry relative="1" as="geometry">
            <Array as="points">
              <mxPoint x="550" y="320" />
              <mxPoint x="60" y="320" />
            </Array>
          </mxGeometry>
        </mxCell>
        <mxCell id="mDSZp5O0hA007oUGLqsv-2" value="卸车区" style="rounded=0;whiteSpace=wrap;html=1;" vertex="1" parent="mDSZp5O0hA007oUGLqsv-19">
          <mxGeometry x="490" y="110" width="120" height="100" as="geometry" />
        </mxCell>
        <mxCell id="mDSZp5O0hA007oUGLqsv-21" value="" style="ellipse;whiteSpace=wrap;html=1;aspect=fixed;" vertex="1" parent="WIyWlLk6GJQsqaUBKTNV-1">
          <mxGeometry x="220" y="450" width="30" height="30" as="geometry" />
        </mxCell>
      </root>
    </mxGraphModel>
  </diagram>
</mxfile>
